{
  "accessors": [
    {
      "bufferView": 2,
      "componentType": 5126,
      "count": 796,
      "max": [
        7.321783065795898,
        8.719324111938477,
        5.954830169677734
      ],
      "min": [
        -5.363887786865234,
        -0.15798799693584442,
        -5.345177173614502
      ],
      "type": "VEC3"
    },
    {
      "bufferView": 2,
      "byteOffset": 9552,
      "componentType": 5126,
      "count": 796,
      "max": [
        0.9998284578323364,
        1.0,
        0.9985690116882324
      ],
      "min": [
        -0.9993239045143127,
        -0.9795375466346741,
        -0.9999523758888245
      ],
      "type": "VEC3"
    },
    {
      "bufferView": 3,
      "componentType": 5126,
      "count": 796,
      "max": [
        0.9336099028587341,
        0.9999101758003235,
        0.9990992546081543,
        1.0
      ],
      "min": [
        -0.9916589856147766,
        -0.9984431266784668,
        -0.9938345551490784,
        -1.0
      ],
      "type": "VEC4"
    },
    {
      "bufferView": 1,
      "componentType": 5126,
      "count": 796,
      "max": [
        0.9078789949417114,
        0.9856629967689514
      ],
      "min": [
        0.013205000199377537,
        0.01433700043708086
      ],
      "type": "VEC2"
    },
    {
      "bufferView": 0,
      "componentType": 5125,
      "count": 4527,
      "type": "SCALAR"
    }
  ],
  "asset": {
    "extras": {
      "author": "LeandroRiquelme (https://sketchfab.com/LeandroRiquelme)",
      "license": "CC-BY-4.0 (http://creativecommons.org/licenses/by/4.0/)",
      "source": "https://sketchfab.com/3d-models/stylized-trunk-5ea99a627ecf496fa38f3056d6195ffa",
      "title": "stylized trunk"
    },
    "generator": "Sketchfab-16.43.0",
    "version": "2.0"
  },
  "bufferViews": [
    {
      "buffer": 0,
      "byteLength": 18108,
      "name": "floatBufferViews",
      "target": 34963
    },
    {
      "buffer": 0,
      "byteLength": 6368,
      "byteOffset": 18108,
      "byteStride": 8,
      "name": "floatBufferViews",
      "target": 34962
    },
    {
      "buffer": 0,
      "byteLength": 19104,
      "byteOffset": 24476,
      "byteStride": 12,
      "name": "floatBufferViews",
      "target": 34962
    },
    {
      "buffer": 0,
      "byteLength": 12736,
      "byteOffset": 43580,
      "byteStride": 16,
      "name": "floatBufferViews",
      "target": 34962
    }
  ],
  "buffers": [
    {
      "byteLength": 56316,
      "uri": "scene.bin"
    }
  ],
  "images": [
    {
      "uri": "textures/standardSurface1_baseColor.jpeg"
    },
    {
      "uri": "textures/standardSurface1_metallicRoughness.png"
    },
    {
      "uri": "textures/standardSurface1_normal.png"
    }
  ],
  "materials": [
    {
      "doubleSided": true,
      "name": "standardSurface1",
      "normalTexture": {
        "index": 2
      },
      "occlusionTexture": {
        "index": 1
      },
      "pbrMetallicRoughness": {
        "baseColorTexture": {
          "index": 0
        },
        "metallicRoughnessTexture": {
          "index": 1
        }
      }
    }
  ],
  "meshes": [
    {
      "name": "defaultMaterial",
      "primitives": [
        {
          "attributes": {
            "NORMAL": 1,
            "POSITION": 0,
            "TANGENT": 2,
            "TEXCOORD_0": 3
          },
          "indices": 4,
          "material": 0,
          "mode": 4
        }
      ]
    }
  ],
  "nodes": [
    {
      "children": [
        1
      ],
      "matrix": [
        1.0,
        0.0,
        0.0,
        0.0,
        0.0,
        2.220446049250313e-16,
        -1.0,
        0.0,
        0.0,
        1.0,
        2.220446049250313e-16,
        0.0,
        0.0,
        0.0,
        0.0,
        1.0
      ],
      "name": "Sketchfab_model"
    },
    {
      "children": [
        2
      ],
      "matrix": [
        1.0,
        0.0,
        0.0,
        0.0,
        0.0,
        -4.371139006309477e-08,
        0.999999999999999,
        0.0,
        0.0,
        -0.999999999999999,
        -4.371139006309477e-08,
        0.0,
        0.0,
        0.0,
        0.0,
        1.0
      ],
      "name": "Collada visual scene group"
    },
    {
      "children": [
        3
      ],
      "name": "SM_tronco_low"
    },
    {
      "mesh": 0,
      "name": "defaultMaterial"
    }
  ],
  "samplers": [
    {
      "magFilter": 9729,
      "minFilter": 9987,
      "wrapS": 10497,
      "wrapT": 10497
    }
  ],
  "scene": 0,
  "scenes": [
    {
      "name": "Sketchfab_Scene",
      "nodes": [
        0
      ]
    }
  ],
  "textures": [
    {
      "sampler": 0,
      "source": 0
    },
    {
      "sampler": 0,
      "source": 1
    },
    {
      "sampler": 0,
      "source": 2
    }
  ]
}
